<svg width="18" height="18" viewBox="0 0 18 18" fill="none" xmlns="http://www.w3.org/2000/svg">
<path d="M4.5 16.5C4.0875 16.5 3.7345 16.3533 3.441 16.0598C3.1475 15.7663 3.0005 15.413 3 15V6C3 5.3 3.2125 4.6875 3.6375 4.1625C4.0625 3.6375 4.6 3.2875 5.25 3.1125V2.25C5.25 2.0375 5.322 1.85925 5.466 1.71525C5.61 1.57125 5.788 1.4995 6 1.5H6.75C6.9625 1.5 7.14075 1.572 7.28475 1.716C7.42875 1.86 7.5005 2.038 7.5 2.25V3H10.5V2.25C10.5 2.0375 10.572 1.8595 10.716 1.716C10.86 1.5725 11.038 1.5005 11.25 1.5H12C12.2125 1.5 12.3907 1.572 12.5347 1.716C12.6787 1.86 12.7505 2.038 12.75 2.25V3.1125C13.4 3.2875 13.9375 3.6375 14.3625 4.1625C14.7875 4.6875 15 5.3 15 6V15C15 15.4125 14.8533 15.7658 14.5598 16.0598C14.2663 16.3538 13.913 16.5005 13.5 16.5H4.5ZM4.5 15H13.5V6C13.5 5.5875 13.3533 5.2345 13.0598 4.941C12.7663 4.6475 12.413 4.5005 12 4.5H6C5.5875 4.5 5.2345 4.647 4.941 4.941C4.6475 5.235 4.5005 5.588 4.5 6V15ZM10.875 10.5V11.25C10.875 11.4625 10.947 11.6408 11.091 11.7848C11.235 11.9288 11.413 12.0005 11.625 12C11.837 11.9995 12.0152 11.9275 12.1597 11.784C12.3042 11.6405 12.376 11.4625 12.375 11.25V9.75C12.375 9.5375 12.303 9.3595 12.159 9.216C12.015 9.0725 11.837 9.0005 11.625 9H6.375C6.1625 9 5.9845 9.072 5.841 9.216C5.6975 9.36 5.6255 9.538 5.625 9.75C5.6245 9.962 5.6965 10.1403 5.841 10.2848C5.9855 10.4293 6.1635 10.501 6.375 10.5H10.875Z" fill="white"/>
</svg>
